<svg width="112" height="26" viewBox="0 0 112 26" fill="none" xmlns="http://www.w3.org/2000/svg">
<path d="M12.67 1H0.5C0.367392 1 0.240215 1.05268 0.146447 1.14645C0.0526785 1.24021 0 1.36739 0 1.5V25.23C0.00256007 25.3618 0.0560606 25.4875 0.14928 25.5807C0.242499 25.6739 0.368193 25.7274 0.5 25.73H12.67C15.8885 25.6385 18.9445 24.2956 21.1887 21.9867C23.4329 19.6778 24.6883 16.5848 24.6883 13.365C24.6883 10.1452 23.4329 7.05222 21.1887 4.74332C18.9445 2.43442 15.8885 1.09154 12.67 1ZM13.86 22C12.0187 22.3169 10.1242 22.0395 8.45107 21.2079C6.77789 20.3764 5.4128 19.0339 4.55347 17.3748C3.69414 15.7158 3.38516 13.8263 3.67129 11.9799C3.95741 10.1335 4.82378 8.42612 6.14495 7.10495C7.46612 5.78378 9.1735 4.91741 11.0199 4.63129C12.8663 4.34516 14.7558 4.65414 16.4148 5.51347C18.0739 6.3728 19.4164 7.73789 20.2479 9.41106C21.0795 11.0842 21.3569 12.9787 21.04 14.82C20.7316 16.6119 19.8757 18.2643 18.59 19.55C17.3043 20.8357 15.6519 21.6916 13.86 22Z" fill="#0062B8"/>
<path d="M46.312 15.744H37.408C37.336 15.744 37.288 15.792 37.288 15.864C37.288 17.616 38.56 19.2 40.696 19.2C42.4 19.2 43.24 18.48 43.744 17.52C43.792 17.424 43.84 17.4 43.912 17.4H46.048C46.12 17.4 46.192 17.424 46.168 17.52C45.544 19.872 43.408 21.24 40.696 21.24C37.096 21.24 34.864 18.672 34.864 14.928C34.864 11.16 36.976 8.616 40.696 8.616C44.44 8.616 46.552 11.184 46.552 14.928C46.552 15.168 46.48 15.432 46.432 15.624C46.408 15.696 46.384 15.744 46.312 15.744ZM44.056 13.824C44.056 12.456 43.072 10.656 40.696 10.656C38.368 10.656 37.288 12.696 37.288 13.824C37.288 13.896 37.36 13.944 37.408 13.944H43.936C44.008 13.944 44.056 13.896 44.056 13.824ZM60.6548 4.104H62.6948C62.7668 4.104 62.8148 4.152 62.8148 4.224V20.88C62.8148 20.952 62.7668 21 62.6948 21H59.1668C59.0948 21 59.0228 20.952 58.9748 20.88L51.7028 6.456C51.6548 6.36 51.4628 6.36 51.4628 6.504V20.88C51.4628 20.952 51.4148 21 51.3428 21H49.3028C49.2308 21 49.1828 20.952 49.1828 20.88V4.224C49.1828 4.152 49.2308 4.104 49.3028 4.104H52.8548C52.9268 4.104 52.9748 4.128 53.0228 4.224L60.2948 18.624C60.3668 18.768 60.5348 18.744 60.5348 18.6V4.224C60.5348 4.152 60.5828 4.104 60.6548 4.104ZM77.3774 14.928C77.3774 18.672 75.1694 21.24 71.4254 21.24C67.6574 21.24 65.4734 18.672 65.4734 14.928C65.4734 11.16 67.6574 8.616 71.4254 8.616C75.1694 8.616 77.3774 11.184 77.3774 14.928ZM75.0974 14.928C75.0974 12.432 73.7294 10.656 71.4254 10.656C69.1454 10.656 67.7534 12.432 67.7534 14.928C67.7534 17.424 69.1454 19.2 71.4254 19.2C73.7294 19.2 75.0974 17.424 75.0974 14.928ZM85.7329 19.08V20.88C85.7329 20.952 85.6849 21 85.6129 21H83.7649C81.7729 21 80.6209 20.136 80.6209 18.168V10.776C80.6209 10.704 80.5729 10.656 80.5009 10.656H78.3649C78.2929 10.656 78.2449 10.608 78.2449 10.536V8.976C78.2449 8.904 78.2929 8.856 78.3649 8.856H80.5009C80.5729 8.856 80.6209 8.808 80.6209 8.736V5.496C80.6209 5.424 80.6689 5.376 80.7409 5.376H82.7809C82.8529 5.376 82.9009 5.424 82.9009 5.496V8.736C82.9009 8.808 82.9489 8.856 83.0209 8.856H85.6129C85.6849 8.856 85.7329 8.904 85.7329 8.976V10.536C85.7329 10.608 85.6849 10.656 85.6129 10.656H83.0209C82.9489 10.656 82.9009 10.704 82.9009 10.776V17.76C82.9009 18.504 83.2369 18.96 84.1969 18.96H85.6129C85.6849 18.96 85.7329 19.008 85.7329 19.08ZM98.5542 15.744H89.6502C89.5782 15.744 89.5302 15.792 89.5302 15.864C89.5302 17.616 90.8022 19.2 92.9382 19.2C94.6422 19.2 95.4822 18.48 95.9862 17.52C96.0342 17.424 96.0822 17.4 96.1542 17.4H98.2902C98.3622 17.4 98.4342 17.424 98.4102 17.52C97.7862 19.872 95.6502 21.24 92.9382 21.24C89.3382 21.24 87.1062 18.672 87.1062 14.928C87.1062 11.16 89.2182 8.616 92.9382 8.616C96.6822 8.616 98.7942 11.184 98.7942 14.928C98.7942 15.168 98.7222 15.432 98.6742 15.624C98.6502 15.696 98.6262 15.744 98.5542 15.744ZM96.2982 13.824C96.2982 12.456 95.3142 10.656 92.9382 10.656C90.6102 10.656 89.5302 12.696 89.5302 13.824C89.5302 13.896 89.6022 13.944 89.6502 13.944H96.1782C96.2502 13.944 96.2982 13.896 96.2982 13.824ZM110.664 12.96H108.6C108.528 12.96 108.48 12.912 108.48 12.84C108.48 11.52 107.424 10.656 105.48 10.656C103.68 10.656 102.888 11.448 102.888 12.192C102.888 13.56 104.616 13.584 105.816 13.752C108.216 14.088 111.096 14.304 111.096 17.376C111.096 20.112 108.816 21.24 105.816 21.24C102.168 21.24 100.392 19.32 100.392 17.016C100.392 16.944 100.44 16.896 100.512 16.896H102.528C102.6 16.896 102.672 16.944 102.672 17.016C102.672 18.216 103.896 19.2 105.816 19.2C107.04 19.2 108.816 18.936 108.816 17.376C108.816 16.008 106.824 15.912 105.816 15.792C103.512 15.528 100.608 15.168 100.608 12.192C100.608 10.224 102.504 8.616 105.48 8.616C108.432 8.616 110.76 10.008 110.76 12.84C110.76 12.912 110.736 12.96 110.664 12.96Z" fill="#1E2B3C"/>
</svg>
