<svg width="99" height="28" viewBox="0 0 99 28" fill="none" xmlns="http://www.w3.org/2000/svg">
<path d="M12.67 0H0.5C0.368193 0.00256007 0.242499 0.0560606 0.14928 0.14928C0.0560606 0.242499 0.00256007 0.368193 0 0.5V24.24C0.00256007 24.3718 0.0560606 24.4975 0.14928 24.5907C0.242499 24.6839 0.368193 24.7374 0.5 24.74H12.67C15.9507 24.74 19.0971 23.4367 21.4169 21.1169C23.7367 18.7971 25.04 15.6507 25.04 12.37C25.04 9.08927 23.7367 5.94291 21.4169 3.62309C19.0971 1.30326 15.9507 4.88867e-08 12.67 0ZM13.86 21C12.0187 21.3169 10.1242 21.0395 8.45107 20.2079C6.77789 19.3764 5.4128 18.0339 4.55347 16.3748C3.69414 14.7158 3.38516 12.8263 3.67129 10.9799C3.95741 9.13351 4.82378 7.42612 6.14495 6.10495C7.46612 4.78378 9.1735 3.91741 11.0199 3.63129C12.8663 3.34516 14.7558 3.65414 16.4148 4.51347C18.0739 5.3728 19.4164 6.73789 20.2479 8.41107C21.0795 10.0842 21.3569 11.9787 21.04 13.82C20.7316 15.6119 19.8757 17.2643 18.59 18.55C17.3043 19.8357 15.6519 20.6916 13.86 21" fill="#0062B8"/>
<path d="M47.312 15.844H38.408C38.336 15.844 38.288 15.892 38.288 15.964C38.288 17.716 39.56 19.3 41.696 19.3C43.4 19.3 44.24 18.58 44.744 17.62C44.792 17.524 44.84 17.5 44.912 17.5H47.048C47.12 17.5 47.192 17.524 47.168 17.62C46.544 19.972 44.408 21.34 41.696 21.34C38.096 21.34 35.864 18.772 35.864 15.028C35.864 11.26 37.976 8.71597 41.696 8.71597C45.44 8.71597 47.552 11.284 47.552 15.028C47.552 15.268 47.48 15.532 47.432 15.724C47.408 15.796 47.384 15.844 47.312 15.844ZM45.056 13.924C45.056 12.556 44.072 10.756 41.696 10.756C39.368 10.756 38.288 12.796 38.288 13.924C38.288 13.996 38.36 14.044 38.408 14.044H44.936C45.008 14.044 45.056 13.996 45.056 13.924ZM58.9908 8.83597C58.9908 7.22798 57.5028 6.00398 55.3668 6.00398C53.4708 6.00398 51.9108 7.17997 51.9108 8.78798C51.9108 10.756 53.9748 11.068 55.6308 11.26C58.7748 11.62 62.0388 12.364 62.0388 16.348C62.0388 18.748 60.2868 21.34 55.6308 21.34C51.4788 21.34 49.2228 19.06 49.2228 16.468C49.2228 16.396 49.2708 16.348 49.3428 16.348H51.4788C51.5508 16.348 51.6228 16.42 51.6228 16.492C51.6228 17.692 52.9188 19.3 55.6308 19.3C58.1748 19.3 59.6388 17.932 59.6388 16.348C59.6388 14.188 57.7188 13.756 55.6308 13.54C52.9428 13.252 49.5108 12.508 49.5108 8.78798C49.5108 5.71597 52.4388 3.96397 55.3668 3.96397C58.4148 3.96397 61.3908 5.54798 61.3908 8.83597C61.3908 8.90798 61.3428 8.95597 61.2708 8.95597H59.1108C59.0388 8.95597 58.9908 8.90798 58.9908 8.83597ZM66.9232 9.07597V20.98C66.9232 21.052 66.8752 21.1 66.8032 21.1H64.7632C64.6912 21.1 64.6432 21.052 64.6432 20.98V9.07597C64.6432 9.00398 64.6912 8.95597 64.7632 8.95597H66.8032C66.8752 8.95597 66.9232 9.00398 66.9232 9.07597ZM66.9712 7.44398H64.5712C64.4992 7.44398 64.4512 7.39597 64.4512 7.32398V4.89998C64.4512 4.82797 64.4992 4.77998 64.5712 4.77998H66.9712C67.0432 4.77998 67.0912 4.82797 67.0912 4.89998V7.32398C67.0912 7.39597 67.0432 7.44398 66.9712 7.44398ZM75.9751 19.18V20.98C75.9751 21.052 75.9271 21.1 75.8551 21.1H74.0071C72.0151 21.1 70.8631 20.236 70.8631 18.268V10.876C70.8631 10.804 70.8151 10.756 70.7431 10.756H68.6071C68.5351 10.756 68.4871 10.708 68.4871 10.636V9.07597C68.4871 9.00398 68.5351 8.95597 68.6071 8.95597H70.7431C70.8151 8.95597 70.8631 8.90798 70.8631 8.83597V5.59597C70.8631 5.52397 70.9111 5.47598 70.9831 5.47598H73.0231C73.0951 5.47598 73.1431 5.52397 73.1431 5.59597V8.83597C73.1431 8.90798 73.1911 8.95597 73.2631 8.95597H75.8551C75.9271 8.95597 75.9751 9.00398 75.9751 9.07597V10.636C75.9751 10.708 75.9271 10.756 75.8551 10.756H73.2631C73.1911 10.756 73.1431 10.804 73.1431 10.876V17.86C73.1431 18.604 73.4791 19.06 74.4391 19.06H75.8551C75.9271 19.06 75.9751 19.108 75.9751 19.18ZM90.1582 19.18V20.98C90.1582 21.052 90.1102 21.1 90.0382 21.1H89.3422C87.9742 21.1 87.1582 20.764 86.7982 19.996C86.7502 19.876 86.6302 19.9 86.5822 19.948C86.0062 20.548 84.5182 21.34 82.3102 21.34C79.0942 21.34 77.5102 19.78 77.5102 17.5C77.5102 15.412 79.2622 13.852 82.7902 13.852H85.4782C86.0062 13.852 86.2702 13.396 86.2702 13.06C86.2702 12.076 86.0302 10.756 83.1742 10.756C81.1102 10.756 80.1742 11.716 80.1742 12.94C80.1742 13.012 80.1262 13.06 80.0542 13.06H78.0142C77.9422 13.06 77.8942 13.012 77.8942 12.94C77.8942 10.108 80.4622 8.71597 83.1742 8.71597C86.4862 8.71597 88.5502 10.132 88.5502 13.06V18.268C88.5502 18.628 88.8382 19.06 89.3422 19.06H90.0382C90.1102 19.06 90.1582 19.108 90.1582 19.18ZM86.2702 16.108V15.772C86.2702 15.7 86.2222 15.652 86.1502 15.652H82.7902C80.2462 15.652 79.7902 16.66 79.7902 17.5C79.7902 18.364 80.3902 19.3 82.3102 19.3C85.2142 19.3 86.2222 17.572 86.2702 16.108ZM97.8189 19.18V20.98C97.8189 21.052 97.7709 21.1 97.6989 21.1H95.8509C93.8589 21.1 92.7069 20.236 92.7069 18.268V10.876C92.7069 10.804 92.6589 10.756 92.5869 10.756H90.4509C90.3789 10.756 90.3309 10.708 90.3309 10.636V9.07597C90.3309 9.00398 90.3789 8.95597 90.4509 8.95597H92.5869C92.6589 8.95597 92.7069 8.90798 92.7069 8.83597V5.59597C92.7069 5.52397 92.7549 5.47598 92.8269 5.47598H94.8669C94.9389 5.47598 94.9869 5.52397 94.9869 5.59597V8.83597C94.9869 8.90798 95.0349 8.95597 95.1069 8.95597H97.6989C97.7709 8.95597 97.8189 9.00398 97.8189 9.07597V10.636C97.8189 10.708 97.7709 10.756 97.6989 10.756H95.1069C95.0349 10.756 94.9869 10.804 94.9869 10.876V17.86C94.9869 18.604 95.3229 19.06 96.2829 19.06H97.6989C97.7709 19.06 97.8189 19.108 97.8189 19.18Z" fill="#1E2B3C"/>
</svg>
